<?xml version="1.0" encoding="UTF-8"?>
<!DOCTYPE svg PUBLIC "-//W3C//DTD SVG 1.1//EN" "http://www.w3.org/Graphics/SVG/1.1/DTD/svg11.dtd">
<svg version="1.2" width="2917.2mm" height="611.8mm" viewBox="0 0 291720 61180" preserveAspectRatio="xMidYMid" fill-rule="evenodd" clip-path="url(#presentation_clip_path)" stroke-width="28.222" stroke-linejoin="round" xmlns="http://www.w3.org/2000/svg" xmlns:ooo="http://xml.openoffice.org/svg/export" xmlns:xlink="http://www.w3.org/1999/xlink" xml:space="preserve">
 <defs class="ClipPathGroup">
  <clipPath id="presentation_clip_path" clipPathUnits="userSpaceOnUse">
   <rect x="0" y="0" width="291720" height="61180"/>
  </clipPath>
 </defs>
 <defs class="TextShapeIndex">
  <g ooo:slide="id1" ooo:id-list="id3 id4 id5 id6 id7 id8 id9 id10 id11 id12 id13 id14 id15 id16 id17 id18 id19 id20 id21 id22 id23 id24 id25 id26 id27 id28 id29"/>
 </defs>
 <defs class="EmbeddedBulletChars">
  <g id="bullet-char-template(57356)" transform="scale(0.00048828125,-0.00048828125)">
   <path d="M 580,1141 L 1163,571 580,0 -4,571 580,1141 Z"/>
  </g>
  <g id="bullet-char-template(57354)" transform="scale(0.00048828125,-0.00048828125)">
   <path d="M 8,1128 L 1137,1128 1137,0 8,0 8,1128 Z"/>
  </g>
  <g id="bullet-char-template(10146)" transform="scale(0.00048828125,-0.00048828125)">
   <path d="M 174,0 L 602,739 174,1481 1456,739 174,0 Z M 1358,739 L 309,1346 659,739 1358,739 Z"/>
  </g>
  <g id="bullet-char-template(10132)" transform="scale(0.00048828125,-0.00048828125)">
   <path d="M 2015,739 L 1276,0 717,0 1260,543 174,543 174,936 1260,936 717,1481 1274,1481 2015,739 Z"/>
  </g>
  <g id="bullet-char-template(10007)" transform="scale(0.00048828125,-0.00048828125)">
   <path d="M 0,-2 C -7,14 -16,27 -25,37 L 356,567 C 262,823 215,952 215,954 215,979 228,992 255,992 264,992 276,990 289,987 310,991 331,999 354,1012 L 381,999 492,748 772,1049 836,1024 860,1049 C 881,1039 901,1025 922,1006 886,937 835,863 770,784 769,783 710,716 594,584 L 774,223 C 774,196 753,168 711,139 L 727,119 C 717,90 699,76 672,76 641,76 570,178 457,381 L 164,-76 C 142,-110 111,-127 72,-127 30,-127 9,-110 8,-76 1,-67 -2,-52 -2,-32 -2,-23 -1,-13 0,-2 Z"/>
  </g>
  <g id="bullet-char-template(10004)" transform="scale(0.00048828125,-0.00048828125)">
   <path d="M 285,-33 C 182,-33 111,30 74,156 52,228 41,333 41,471 41,549 55,616 82,672 116,743 169,778 240,778 293,778 328,747 346,684 L 369,508 C 377,444 397,411 428,410 L 1163,1116 C 1174,1127 1196,1133 1229,1133 1271,1133 1292,1118 1292,1087 L 1292,965 C 1292,929 1282,901 1262,881 L 442,47 C 390,-6 338,-33 285,-33 Z"/>
  </g>
  <g id="bullet-char-template(9679)" transform="scale(0.00048828125,-0.00048828125)">
   <path d="M 813,0 C 632,0 489,54 383,161 276,268 223,411 223,592 223,773 276,916 383,1023 489,1130 632,1184 813,1184 992,1184 1136,1130 1245,1023 1353,916 1407,772 1407,592 1407,412 1353,268 1245,161 1136,54 992,0 813,0 Z"/>
  </g>
  <g id="bullet-char-template(8226)" transform="scale(0.00048828125,-0.00048828125)">
   <path d="M 346,457 C 273,457 209,483 155,535 101,586 74,649 74,723 74,796 101,859 155,911 209,963 273,989 346,989 419,989 480,963 531,910 582,859 608,796 608,723 608,648 583,586 532,535 482,483 420,457 346,457 Z"/>
  </g>
  <g id="bullet-char-template(8211)" transform="scale(0.00048828125,-0.00048828125)">
   <path d="M -4,459 L 1135,459 1135,606 -4,606 -4,459 Z"/>
  </g>
 </defs>
 <defs class="TextEmbeddedBitmaps"/>
 <g>
  <g id="id2" class="Master_Slide">
   <g id="bg-id2" class="Background"/>
   <g id="bo-id2" class="BackgroundObjects"/>
  </g>
 </g>
 <g class="SlideGroup">
  <g>
   <g id="id1" class="Slide" clip-path="url(#presentation_clip_path)">
    <g class="Page">
     <g class="com.sun.star.drawing.PolyPolygonShape">
      <g id="id3">
       <path fill="rgb(0,0,0)" stroke="none" d="M 301,-1093 L 301,-1092 301,-1092 300,-1092 301,-1093 Z"/>
      </g>
     </g>
     <g class="com.sun.star.drawing.PolyPolygonShape">
      <g id="id4">
       <path fill="rgb(0,0,0)" stroke="none" d="M 300,-1093 L 301,-1093 301,-1092 300,-1092 300,-1093 Z"/>
      </g>
     </g>
     <g class="com.sun.star.drawing.PolyPolygonShape">
      <g id="id5">
       <path fill="rgb(0,0,0)" stroke="none" d="M 300,-1092 L 300,-1092 300,-1093 301,-1092 300,-1092 Z M 301,-1092 L 300,-1093 300,-1092 301,-1092 Z"/>
      </g>
     </g>
     <g class="com.sun.star.drawing.PolyPolygonShape">
      <g id="id6">
       <path fill="rgb(0,0,0)" stroke="none" d="M 302,-1092 L 301,-1092 301,-1092 301,-1092 300,-1092 300,-1092 301,-1092 301,-1093 301,-1093 302,-1092 Z"/>
      </g>
     </g>
     <g class="com.sun.star.drawing.PolyPolygonShape">
      <g id="id7">
       <path fill="rgb(0,0,0)" stroke="none" d="M 300,-1092 L 300,-1093 300,-1093 300,-1093 300,-1093 300,-1093 300,-1093 300,-1093 300,-1093 300,-1093 300,-1093 300,-1093 300,-1093 300,-1093 300,-1093 300,-1093 300,-1093 300,-1093 300,-1093 300,-1093 300,-1092 Z"/>
      </g>
     </g>
     <g class="com.sun.star.drawing.PolyPolygonShape">
      <g id="id8">
       <path fill="rgb(0,0,0)" stroke="none" d="M 300,-1092 L 300,-1092 300,-1092 300,-1093 300,-1093 300,-1093 300,-1092 300,-1092 301,-1093 301,-1093 301,-1093 301,-1093 301,-1093 300,-1092 Z"/>
      </g>
     </g>
     <g class="com.sun.star.drawing.ClosedBezierShape">
      <g id="id9">
       <path fill="rgb(0,0,0)" stroke="none" d="M 301,-1092 C 300,-1092 300,-1092 300,-1092 L 300,-1092 C 300,-1093 300,-1093 300,-1093 L 301,-1093 301,-1093 301,-1092 Z"/>
      </g>
     </g>
     <g class="com.sun.star.drawing.PolyPolygonShape">
      <g id="id10">
       <path fill="rgb(0,0,0)" stroke="none" d="M 300,-1092 L 300,-1092 Z"/>
      </g>
     </g>
     <g class="com.sun.star.drawing.PolyPolygonShape">
      <g id="id11">
       <path fill="rgb(0,0,0)" stroke="none" d="M 300,-1092 L 301,-1092 301,-1092 300,-1092 Z"/>
      </g>
     </g>
     <g class="com.sun.star.drawing.PolyPolygonShape">
      <g id="id12">
       <path fill="rgb(225,57,62)" stroke="none" d="M 260158,2220 L 248868,10137 262789,30764 261177,56480 273196,57293 275355,28490 290547,13234 281341,4127 270213,16291 260158,2220 Z"/>
      </g>
     </g>
     <g class="com.sun.star.drawing.PolyPolygonShape">
      <g id="id13">
       <path fill="rgb(0,0,0)" stroke="none" d="M 261796,55867 L 272598,56588 274863,28241 289747,13292 281398,4928 270158,17251 260043,2995 249729,10264 263343,30582 263404,30767 261796,55867 Z M 273723,57899 L 260571,57005 262149,30933 248106,9936 260286,1359 270267,15332 281296,3241 291421,13275 275932,28752 273723,57899 Z"/>
      </g>
     </g>
     <g class="com.sun.star.drawing.PolyPolygonShape">
      <g id="id14">
       <path fill="rgb(225,57,62)" stroke="none" d="M 62504,54927 L 76698,58878 81634,46941 85650,57829 92786,46482 96299,59583 109428,55283 98277,4097 87725,26024 79290,3395 62504,54927 Z"/>
      </g>
     </g>
     <g class="com.sun.star.drawing.PolyPolygonShape">
      <g id="id15">
       <path fill="rgb(0,0,0)" stroke="none" d="M 93003,45018 L 96672,58847 108692,54909 98095,5917 87581,27586 79367,5254 63269,54513 76357,58212 81704,45279 85756,56525 93003,45018 Z M 95840,60307 L 92569,47945 85458,59121 81577,48515 77026,59631 61752,55256 79288,1635 87770,24535 98544,2288 110078,55643 95840,60307 Z"/>
      </g>
     </g>
     <g class="com.sun.star.drawing.ClosedBezierShape">
      <g id="id16">
       <path fill="rgb(225,57,62)" stroke="none" d="M 212578,22918 C 212130,28307 207243,28638 207243,28638 L 209014,17287 C 209014,17287 212945,18661 212578,22918 Z M 227865,24831 C 230442,5066 202313,1953 196995,2221 L 187464,57028 202025,59098 205393,41121 213962,59283 225064,54417 219606,39004 C 219606,39004 226671,34069 227865,24831 Z"/>
      </g>
     </g>
     <g class="com.sun.star.drawing.ClosedBezierShape">
      <g id="id17">
       <path fill="rgb(0,0,0)" stroke="none" d="M 209422,18092 L 207967,27906 C 209250,27569 211704,26437 212055,22882 212205,20089 210477,18689 209422,18092 Z M 206533,29278 L 208520,16463 209196,16651 C 209281,16664 213532,18262 213187,22961 212677,28781 207333,29221 207247,29208 L 206533,29278 Z M 205151,39191 L 214256,58488 224334,53999 218851,38757 219246,38464 C 219346,38391 226127,33589 227356,24709 227885,19949 226651,15807 223728,12382 216632,4468 202021,2743 197528,2781 L 197442,2768 188163,56469 201518,58360 205151,39191 Z M 213681,59986 L 205635,43045 202472,59645 186779,57495 196464,1655 196907,1633 197436,1624 C 202199,1537 217241,3326 224545,11623 227786,15271 229154,19697 228474,24875 227421,33166 221784,37960 220289,39146 L 225820,54659 213681,59986 Z"/>
      </g>
     </g>
     <g class="com.sun.star.drawing.ClosedBezierShape">
      <g id="id18">
       <path fill="rgb(225,57,62)" stroke="none" d="M 239057,26481 L 237055,16243 C 237055,16243 241793,16330 242402,19939 243023,23462 239057,26481 239057,26481 Z M 261721,48668 L 261979,43956 251442,32540 C 251442,32540 258208,26064 255305,14197 251978,1035 230834,1244 221782,4742 L 231517,58358 243506,55822 241313,39750 254364,54968 261721,48668 Z"/>
      </g>
     </g>
     <g class="com.sun.star.drawing.ClosedBezierShape">
      <g id="id19">
       <path fill="rgb(0,0,0)" stroke="none" d="M 237746,16921 L 239400,25348 C 240526,24283 242235,22249 241865,19994 241409,17728 239038,17112 237746,16921 Z M 238639,27522 L 236363,15572 237064,15588 C 237323,15626 242306,15836 242950,19803 243618,23598 239626,26790 239429,26936 L 238639,27522 Z M 222425,5148 L 231969,57679 242873,55336 240467,37735 254498,54068 261162,48281 261430,44097 250575,32459 250983,32079 C 251081,32006 257563,25664 254669,14326 252164,3925 238274,3274 234139,3277 229918,3267 225594,3947 222425,5148 Z M 231064,59041 L 230968,58499 221137,4341 221507,4220 C 224873,2872 229554,2157 234046,2119 245849,2021 253985,6482 255852,14061 258444,24475 253709,30900 252236,32529 L 262626,43747 262303,48890 254329,55802 242096,41585 244148,56229 231064,59041 Z"/>
      </g>
     </g>
     <g class="com.sun.star.drawing.ClosedBezierShape">
      <g id="id20">
       <path fill="rgb(225,57,62)" stroke="none" d="M 138775,24175 C 137191,23588 138958,19978 140899,20531 140469,22842 140102,24723 138775,24175 Z M 118626,29547 C 117226,28899 118932,25105 121129,26311 120376,29014 119866,30082 118626,29547 Z M 143682,24902 C 142793,23186 148013,11115 148013,11115 L 144158,11599 141320,17690 C 136965,15020 134203,22970 134886,26678 133884,27497 133627,27458 133334,27063 132415,26135 135039,20894 133420,19950 131482,18783 130199,21497 130199,21497 L 129639,20533 127285,20977 C 127285,20977 126753,28728 124144,28517 123051,25804 125794,21548 125794,21548 L 123345,21448 122229,23043 C 122229,23043 121212,22188 120054,22280 118639,22335 116824,23297 115371,25985 113917,28674 113212,31648 114337,32959 116601,35494 120114,31967 120114,31967 120114,31967 120305,33052 121795,33096 123198,33127 124231,30905 124231,30905 L 124766,32040 127811,31084 129415,27979 C 129415,27979 129979,30701 132258,30159 134439,29691 135568,28011 135568,28011 135568,28011 136167,28716 138064,28381 139961,28046 140953,26697 141460,26244 141460,26244 141680,26541 141788,26997 141824,27354 141661,27858 141661,27858 141661,27858 129619,33728 118740,35899 L 116891,41255 C 134653,35969 145943,28052 145943,28052 145943,28052 146131,27376 146160,26589 146274,25814 146105,25173 146105,25173 146105,25173 144485,26605 143682,24902 Z"/>
      </g>
     </g>
     <g class="com.sun.star.drawing.ClosedBezierShape">
      <g id="id21">
       <path fill="rgb(0,0,0)" stroke="none" d="M 140296,20968 C 139569,21125 138814,22068 138686,22929 138647,23188 138670,23631 139001,23769 L 139174,23794 C 139703,23784 140006,22333 140296,20968 Z M 139193,24852 L 138603,24677 C 137853,24390 137525,23638 137666,22691 137942,21412 139133,19917 140449,19935 L 141052,20025 141469,20175 141406,20606 C 140975,22916 140608,24798 139193,24852 Z M 120293,26538 C 119492,26596 118836,27466 118635,28228 118583,28573 118619,28930 118778,29041 L 119196,29191 C 119725,29182 120050,28175 120551,26576 L 120293,26538 Z M 119227,30163 C 118957,30211 118698,30174 118366,30036 117716,29676 117474,28936 117688,28088 117880,26796 118944,25547 120273,25480 120618,25531 120963,25582 121367,25818 L 121686,26041 121635,26385 C 121045,28586 120544,30183 119227,30163 Z M 141223,27176 L 140703,27716 141185,27435 141223,27176 Z M 126720,21156 L 126262,21880 C 126262,21880 123880,25486 124482,27951 125789,27441 126497,23851 126720,21156 Z M 119109,36305 L 117709,40408 C 133475,35531 144083,28656 145454,27716 145492,27458 145642,27040 145632,26511 L 145697,26080 C 145413,26214 145141,26262 144784,26297 144255,26306 143592,26032 143190,25181 142387,23478 145703,15348 147199,11786 L 144515,12092 141552,18428 140988,18079 C 139700,17273 138518,17538 137440,18874 135730,20908 135010,24585 135418,26581 L 135453,26937 135169,27071 C 134464,27671 134082,27878 133737,27827 133294,27849 132988,27540 132915,27441 132389,26835 132666,25557 132994,23934 133272,22656 133725,20787 133161,20439 132916,20315 132670,20190 132412,20152 131611,20209 130928,21252 130693,21657 L 130295,22566 129367,21108 127740,21396 C 127619,23401 126851,29182 124058,29032 L 123713,28981 123665,28710 C 122767,26465 124186,23421 124919,22033 L 123615,21928 122276,23841 121897,23433 C 121811,23421 121026,22776 120239,22748 L 120153,22734 C 119353,22792 117442,23213 115852,26232 114286,29079 113903,31663 114722,32664 115175,33170 115666,33419 116294,33337 117968,33320 119798,31656 119798,31656 L 120528,30884 120633,31956 C 120620,32042 120815,32510 121774,32565 122661,32520 123480,31146 123730,30655 L 124140,29660 125030,31376 127434,30588 129548,26415 129873,27782 C 129861,27868 130294,29693 131697,29724 L 132054,29689 C 134062,29195 135153,27773 135153,27773 L 135500,27209 135953,27716 C 135953,27716 136271,27938 137145,27980 137417,27932 137674,27971 137958,27837 139300,27684 140216,26852 140748,26227 L 141156,25847 141564,25468 141931,25962 C 141919,26048 142126,26430 142234,26887 142329,27429 142167,27933 142154,28018 L 142043,28178 141845,28325 C 141759,28312 129815,34108 119109,36305 Z M 116150,42025 L 118277,35390 118548,35342 C 125792,33952 133562,30792 137977,28895 L 137177,28953 C 136463,29023 135960,28860 135713,28736 135194,29274 133995,30240 132344,30700 L 131716,30783 C 130399,30763 129726,29960 129312,29195 L 128094,31478 124494,32616 124153,31950 C 123694,32673 122853,33605 121806,33537 L 121707,33611 C 120834,33570 120269,33221 119976,32826 119186,33413 117802,34440 116313,34395 115341,34426 114604,34054 113919,33337 112207,31235 114248,26962 114955,25747 116683,22396 118878,21842 120034,21749 120835,21692 121571,22065 122062,22314 L 123153,20892 126734,21071 126746,20985 126810,20554 129889,19954 130158,20522 C 130690,19897 131408,19212 132466,19193 132823,19157 133327,19320 133731,19556 134946,20264 134480,22219 134015,24173 133801,25021 133498,26471 133718,26768 L 133804,26781 C 133804,26781 133990,26720 134286,26500 134027,24087 134847,20337 136655,18230 137943,16661 139496,16275 141068,16948 L 143781,11103 148793,10527 148493,11362 C 145977,17060 143666,23756 144054,24693 144335,25175 144593,25213 144765,25238 145208,25216 145604,24922 145801,24776 L 146506,24177 146637,25076 C 146637,25076 146793,25802 146665,26663 146636,27451 146448,28127 146436,28214 L 146410,28385 146225,28446 C 146114,28605 134651,36496 117074,41723 L 116150,42025 Z"/>
      </g>
     </g>
     <g class="com.sun.star.drawing.ClosedBezierShape">
      <g id="id22">
       <path fill="rgb(225,57,62)" stroke="none" d="M 61378,31981 C 60909,39302 57606,44971 53939,44780 50372,44515 47758,38409 48312,31101 48782,23779 52099,18025 55752,18303 59320,18567 61933,24673 61378,31981 Z M 55986,4260 C 43523,3468 32571,15042 31654,30128 30554,45273 39887,58270 52350,59061 64801,59939 75851,48291 76767,33206 77782,18048 68534,5064 55986,4260 Z"/>
      </g>
     </g>
     <g class="com.sun.star.drawing.ClosedBezierShape">
      <g id="id23">
       <path fill="rgb(0,0,0)" stroke="none" d="M 55549,18945 C 52374,19003 49367,24452 48901,31158 48735,34653 49136,37879 50169,40408 51142,42751 52525,44100 54087,44243 57311,44457 60429,38849 60921,31971 61160,28575 60685,25249 59639,22807 58680,20378 57297,19028 55721,18972 L 55549,18945 Z M 54266,45413 L 53994,45461 C 52002,45254 50214,43669 49047,40857 48027,38242 47492,34732 47769,31078 48277,23499 51803,17511 55814,17753 57819,17874 59509,19532 60676,22345 61868,24985 62317,28482 62052,32051 61558,39544 58142,45373 54266,45413 Z M 54725,4923 C 43021,4948 33190,16072 32230,30271 31265,45085 40380,57785 52498,58525 52929,58589 53372,58566 53815,58543 65519,58518 75349,47395 76310,33196 77274,18382 68160,5682 56041,4942 55611,4878 55168,4900 54725,4923 Z M 53895,59787 C 53366,59797 52849,59720 52406,59743 39599,58901 30044,45608 31012,30179 32050,15463 42400,3800 54645,3679 55174,3669 55604,3733 56134,3723 68941,4565 78495,17860 77441,33275 76491,48003 66141,59667 53895,59787 Z"/>
      </g>
     </g>
     <g class="com.sun.star.drawing.PolyPolygonShape">
      <g id="id24">
       <path fill="rgb(225,57,62)" stroke="none" d="M 5819,5880 L 37235,1649 43560,15960 30654,17566 35701,57114 20630,58487 15640,19741 1430,21242 5819,5880 Z"/>
      </g>
     </g>
     <g class="com.sun.star.drawing.PolyPolygonShape">
      <g id="id25">
       <path fill="rgb(0,0,0)" stroke="none" d="M 16185,19030 L 21162,57863 34990,56569 30016,17120 42750,15488 36888,2214 6271,6387 2233,20569 16185,19030 Z M 20098,59112 L 15107,20366 627,21915 5365,5373 37595,999 44455,16445 31365,18112 36339,57560 20098,59112 Z"/>
      </g>
     </g>
     <g class="com.sun.star.drawing.PolyPolygonShape">
      <g id="id26">
       <path fill="rgb(225,57,62)" stroke="none" d="M 172315,57740 L 197336,52737 195007,41747 185200,43812 183881,37282 190709,35127 187956,22841 181567,25590 180002,16560 189236,13617 187139,2836 163874,8451 172315,57740 Z"/>
      </g>
     </g>
     <g class="com.sun.star.drawing.PolyPolygonShape">
      <g id="id27">
       <path fill="rgb(0,0,0)" stroke="none" d="M 164597,8910 L 172762,57102 196613,52278 194561,42384 184753,44450 183144,36909 190073,34680 187570,23664 181180,26412 179265,16187 188585,13257 186679,3560 164597,8910 Z M 171856,58463 L 163236,8004 187598,2113 189959,14076 180640,17006 182039,24780 188429,22032 191447,35500 184518,37729 185659,43088 195466,41023 197974,53184 171856,58463 Z"/>
      </g>
     </g>
     <g class="com.sun.star.drawing.ClosedBezierShape">
      <g id="id28">
       <path fill="rgb(225,57,62)" stroke="none" d="M 153039,28136 C 153183,19448 152374,7099 152374,7099 L 166198,4044 C 166198,4044 170673,56352 152310,56799 138278,57094 135010,46492 135010,46492 L 144117,39660 C 144117,39660 145373,44245 148832,44054 152734,43840 152895,36825 153039,28136 Z"/>
      </g>
     </g>
     <g class="com.sun.star.drawing.ClosedBezierShape">
      <g id="id29">
       <path fill="rgb(0,0,0)" stroke="none" d="M 135760,46779 C 136451,48641 140213,56502 152312,56183 154687,56183 156871,55099 158667,53077 167939,42750 166032,9914 165653,4755 L 153011,7545 C 153171,10032 153731,20497 153654,28140 153510,36829 153359,44373 148829,44669 145812,44837 144375,42074 143804,40581 L 135760,46779 Z M 151863,57436 C 137956,57487 134529,46773 134456,46674 L 134335,46304 144443,38652 144671,39478 C 144745,39577 145807,43693 148749,43425 152208,43234 152320,35948 152423,28134 152554,19530 151819,7280 151746,7182 L 151736,6652 166743,3333 166827,3962 C 166941,5562 169947,42255 159512,53906 157507,56160 155051,57292 152306,57414 L 151863,57436 Z"/>
      </g>
     </g>
    </g>
   </g>
  </g>
 </g>
</svg>